<?xml version="1.0" encoding="UTF-8" standalone="no"?>
<svg
   version="1.1"
   x="0px"
   y="0px"
   viewBox="0 0 87.839516 89.942383"
   xml:space="preserve"
   id="svg3"
   sodipodi:docname="noun-island-2856188.svg"
   width="87.839516"
   height="89.942383"
   inkscape:version="1.4 (e7c3feb1, 2024-10-09)"
   xmlns:inkscape="http://www.inkscape.org/namespaces/inkscape"
   xmlns:sodipodi="http://sodipodi.sourceforge.net/DTD/sodipodi-0.dtd"
   xmlns="http://www.w3.org/2000/svg"
   xmlns:svg="http://www.w3.org/2000/svg"><defs
     id="defs3" /><sodipodi:namedview
     id="namedview3"
     pagecolor="#ffffff"
     bordercolor="#000000"
     borderopacity="0.25"
     inkscape:showpageshadow="2"
     inkscape:pageopacity="0.0"
     inkscape:pagecheckerboard="0"
     inkscape:deskcolor="#d1d1d1"
     inkscape:zoom="3.4391373"
     inkscape:cx="50.012543"
     inkscape:cy="58.881046"
     inkscape:window-width="1472"
     inkscape:window-height="816"
     inkscape:window-x="0"
     inkscape:window-y="33"
     inkscape:window-maximized="1"
     inkscape:current-layer="svg3" /><path
     d="m 2.6597975,18.142383 c 4,-2.8 13.1999995,-8 23.1999995,-4.6 0.7,0.2 0.6,1.3 -0.1,1.5 -14.9,3.4 -20.7999995,16.7 -22.5999995,22 -0.2,0.7 0.5,1.3 1,0.8 7.4999995,-5.6 16.4999995,-9.4 25.6999995,-9.2 -4.3,8.9 -8.7,22.7 -7.9,41.4 0,0.6 0.7,1.1 1.3,0.8 3.9,-1.6 8.2,-3.1 12.7,-4.1 0.5,-0.1 0.8,-0.6 0.7,-1 -1.7,-10.2 -2.2,-22.7 1.4,-35.6 9.3,2.9 16.8,10 21.9,18.3 0.3,0.5 1.1,0.4 1.3,-0.3 2.3,-13.5 -2.7,-23 -10.4,-28.4 -0.6,-0.5 -0.3,-1.4 0.5,-1.4 6,0.4 13.2,3 19.8,10.3 0.4,0.5 1.2,0.1 1.2,-0.6 0.3,-8.9 -9.1,-31.4999999 -32.4,-20.7999999 -0.2,0.1 -0.5,0.1 -0.7,-0.1 -2.7,-2.4 -24.1,-19.6000001 -37.4999995,9.9999999 -0.3,0.7 0.3,1.4 0.9,1 z"
     id="path1"
     style="fill:#f59e0b;fill-opacity:1" /><path
     d="M 1.1597975,89.942383 H 28.759797 c 0,0 0,0 0.1,0 h 12 c 0,0 0.1,0 0.1,0 h 45.6 c 1,0 1.6,-1.1 1.1,-1.9 -0.6,-0.9 -1.2,-1.8 -1.8,-2.6 -0.2,-0.3 -0.4,-0.5 -0.6,-0.8 -0.4,-0.6 -0.9,-1.1 -1.3,-1.7 -0.2,-0.3 -0.5,-0.6 -0.7,-0.8 -0.4,-0.5 -0.8,-1 -1.3,-1.4 -0.2,-0.3 -0.5,-0.5 -0.7,-0.8 -0.5,-0.5 -1,-0.9 -1.4,-1.4 -0.2,-0.2 -0.4,-0.4 -0.6,-0.6 -0.7,-0.6 -1.4,-1.2 -2.1,-1.8 0,0 -0.1,-0.1 -0.1,-0.1 -0.7,-0.5 -1.4,-1 -2,-1.5 -0.2,-0.1 -0.4,-0.2 -0.6,-0.4 -0.4,-0.2 -0.7,-0.5 -1.1,-0.7 -0.2,-0.1 -0.4,-0.2 -0.5,-0.3 -0.3,-0.2 -0.7,-0.4 -1,-0.6 -0.3,-0.1 -0.5,-0.3 -0.8,-0.4 -0.2,-0.1 -0.4,-0.2 -0.5,-0.3 -0.4,-0.2 -0.7,-0.4 -1.1,-0.5 -0.2,-0.1 -0.4,-0.2 -0.7,-0.3 -0.2,-0.1 -0.4,-0.2 -0.7,-0.3 -0.4,-0.1 -0.7,-0.3 -1.1,-0.4 -0.2,-0.1 -0.4,-0.2 -0.6,-0.2 -0.3,-0.1 -0.6,-0.2 -0.8,-0.3 -0.3,-0.1 -0.6,-0.2 -0.9,-0.3 -0.5,-0.2 -1.1,-0.3 -1.6,-0.4 -0.3,-0.1 -0.6,-0.2 -1,-0.2 -0.1,0 -0.2,-0.1 -0.3,-0.1 -0.2,0 -0.3,-0.1 -0.5,-0.1 -0.2,-0.1 -0.5,-0.1 -0.7,-0.1 -0.5,-0.1 -0.9,-0.2 -1.4,-0.3 -0.5,-0.1 -1,-0.2 -1.5,-0.2 -0.4,-0.1 -0.8,-0.1 -1.3,-0.1 -0.5,-0.1 -1,-0.1 -1.5,-0.1 -0.5,0 -1,0 -1.4,-0.1 -0.4,0 -0.9,0 -1.3,0 -0.9,0 -1.9,0 -2.8,0 -0.1,0 -0.2,0 -0.4,0 v -0.1 c -3.4,0.2 -6.7,0.6 -9.9,1.3 -5.4,1.1 -10.4,2.8 -15,4.7 -0.6,0.3 -1.3,0.5 -1.9,0.8 -0.7,0.3 -1.3,0.6 -2,0.9 -0.6,0.3 -1.2,0.6 -1.8,0.9 -0.6,0.3 -1.2,0.6 -1.8,0.9 -2,1 -4,2.1 -5.7,3.2 -3.9999995,2.4 -7.3999995,4.7 -9.7999995,6.7 -0.30000002,0.2 -0.40000002,0.4 -0.40000002,0.4 -1.2,0.9 -0.6,2.4 0.50000002,2.4 z"
     id="path2"
     style="fill:#f59e0b;fill-opacity:1" /></svg>
