<?xml version="1.0" encoding="UTF-8" standalone="no"?>
<svg
   version="1.1"
   x="0px"
   y="0px"
   viewBox="0 0 84.174301 90.199997"
   xml:space="preserve"
   id="svg8"
   sodipodi:docname="noun-surfboard-2856170.svg"
   width="84.174301"
   height="90.199997"
   inkscape:version="1.4 (e7c3feb1, 2024-10-09)"
   xmlns:inkscape="http://www.inkscape.org/namespaces/inkscape"
   xmlns:sodipodi="http://sodipodi.sourceforge.net/DTD/sodipodi-0.dtd"
   xmlns="http://www.w3.org/2000/svg"
   xmlns:svg="http://www.w3.org/2000/svg"><defs
     id="defs8" /><sodipodi:namedview
     id="namedview8"
     pagecolor="#ffffff"
     bordercolor="#000000"
     borderopacity="0.25"
     inkscape:showpageshadow="2"
     inkscape:pageopacity="0.0"
     inkscape:pagecheckerboard="0"
     inkscape:deskcolor="#d1d1d1"
     inkscape:zoom="3.1251201"
     inkscape:cx="18.559286"
     inkscape:cy="62.237607"
     inkscape:window-width="1472"
     inkscape:window-height="816"
     inkscape:window-x="0"
     inkscape:window-y="33"
     inkscape:window-maximized="1"
     inkscape:current-layer="svg8" /><path
     d="m 67.314726,54.8 -18.4,-0.6 -2.8,-0.1 c -0.3,0 -0.5,-0.3 -0.5,-0.6 l 0.2,-2.8 1.2,-18.4 c 0,-0.5 -0.5,-0.7 -0.8,-0.5 -2.2,1.5 -4.7,3.3 -7.3,5.2 -0.4,0.3 -0.6,0.8 -0.5,1.3 1.9,11.6 3.5,29.6 -1.7,41.4 -0.5,1.2 0.7,2.4 1.8,1.8 11.1,-5.6 22.5,-17.6 29.3,-26 0.2,-0.2 -0.1,-0.7 -0.5,-0.7 z"
     id="path1"
     style="fill:#1eabb8;fill-opacity:1" /><path
     d="m 72.614726,50.4 h -0.6 c 0,0 0.2,0.1 0.6,0 z"
     id="path2"
     style="fill:#1eabb8;fill-opacity:1" /><path
     d="m 74.714726,45.3 -15.8,-0.5 h -2.8 c -0.3,0 -0.5,-0.3 -0.5,-0.6 l 0.2,-2.8 1,-15.7 c 0,-0.4 -0.4,-0.7 -0.8,-0.5 -1.1,0.6 -2.6,1.5 -4.3,2.6 -0.2,0.1 -0.3,0.3 -0.3,0.5 l -1.4,21 c 0,0.3 0.2,0.6 1.5,0.5 l 20.5,0.6 c 0,0 0,-0.1 0.1,-0.2 1.3,-1.6 2.3,-3 3,-4 0.3,-0.4 0,-0.9 -0.4,-0.9 z"
     id="path3"
     style="fill:#1eabb8;fill-opacity:1" /><path
     d="m 79.614726,18.1 c -3.4,-0.6 -9.2,-0.5 -17.9,3.5 -0.2,0.1 -0.3,0.3 -0.3,0.5 l -1.3,17.8 c 0,0.3 0.2,0.6 0.5,0.6 l 17.8,0.5 c 0.2,0 0.4,-0.1 0.5,-0.3 4.8,-8.3 5.5,-14.1 5.2,-17.5 -0.1,-2.6 -2,-4.6 -4.5,-5.1 z"
     id="path4"
     style="fill:#1eabb8;fill-opacity:1" /><path
     d="m 32.814726,36.1 -12.8,13.3 -1.9,2 c -0.2,0.2 -0.6,0.2 -0.8,0 l -2,-2 L 2.5147258,36.1 c -0.3,-0.3 -0.9,-0.2 -0.9,0.3 -2.7,18.3 -4.5,53.8 16.0000002,53.8 20.5,0 18.8,-35.5 16.1,-53.8 -0.1,-0.4 -0.6,-0.6 -0.9,-0.3 z"
     id="path5"
     style="fill:#1eabb8;fill-opacity:1" /><path
     d="m 3.4147258,23.9 c -0.3,1.2 -0.6,2.9 -1,5 0,0.2 0,0.4 0.1,0.5 L 17.114726,44.6 c 0.2,0.2 0.6,0.2 0.8,0 l 14.6,-15.2 c 0.1,-0.1 0.2,-0.3 0.1,-0.5 -0.4,-2 -0.7,-3.7 -1,-5 -0.1,-0.4 -0.6,-0.6 -0.9,-0.3 l -10.7,11.4 -1.9,2 c -0.2,0.2 -0.6,0.2 -0.8,0 l -2,-2 L 4.4147258,23.7 c -0.3,-0.4 -0.9,-0.2 -1,0.2 z"
     id="path6"
     style="fill:#1eabb8;fill-opacity:1" /><path
     d="m 18.014726,30.2 12.3,-12.8 c 0.1,-0.2 0.2,-0.4 0.1,-0.6 -2.8,-9.1 -6.6,-13.5 -9.3,-15.6 -2,-1.6 -4.8,-1.6 -6.9,0 -2.7,2.1 -6.6000002,6.5 -9.4000002,15.6 -0.1,0.2 0,0.4 0.1,0.6 L 17.214726,30.2 c 0.3,0.2 0.6,0.2 0.8,0 z"
     id="path7"
     style="fill:#1eabb8;fill-opacity:1" /></svg>
